<svg xmlns="http://www.w3.org/2000/svg" viewBox="0 0 960 720" role="img" aria-label="Creative Modern template preview">
  <defs>
    <linearGradient id="creativeHead" x1="0" y1="0" x2="1" y2="1">
      <stop offset="0" stop-color="#0f172a"/>
      <stop offset="1" stop-color="#334155"/>
    </linearGradient>
    <linearGradient id="creativeSkill" x1="0" y1="0" x2="1" y2="0">
      <stop offset="0" stop-color="#f59e0b"/>
      <stop offset="1" stop-color="#f97316"/>
    </linearGradient>
  </defs>
  <rect width="960" height="720" fill="#f8fafc"/>
  <rect x="94" y="42" width="772" height="636" rx="12" fill="#ffffff" stroke="#d1d5db"/>
  <rect x="112" y="60" width="736" height="118" rx="14" fill="url(#creativeHead)"/>
  <circle cx="202" cy="183" r="52" fill="#e5e7eb" stroke="#ffffff" stroke-width="7"/>
  <rect x="272" y="120" width="420" height="18" rx="9" fill="#f8fafc" opacity="0.9"/>
  <rect x="272" y="148" width="240" height="12" rx="6" fill="#fb923c"/>
  <rect x="126" y="238" width="226" height="414" rx="12" fill="#0f172a"/>
  <rect x="388" y="234" width="448" height="12" rx="6" fill="#dbeafe"/>
  <rect x="388" y="258" width="420" height="10" rx="5" fill="#e2e8f0"/>
  <rect x="388" y="278" width="430" height="10" rx="5" fill="#e2e8f0"/>
  <rect x="388" y="326" width="448" height="12" rx="6" fill="#dbeafe"/>
  <rect x="388" y="350" width="402" height="10" rx="5" fill="#e2e8f0"/>
  <rect x="388" y="370" width="430" height="10" rx="5" fill="#e2e8f0"/>
  <rect x="388" y="418" width="448" height="12" rx="6" fill="#dbeafe"/>
  <rect x="388" y="442" width="420" height="10" rx="5" fill="#e2e8f0"/>
  <rect x="388" y="462" width="436" height="10" rx="5" fill="#e2e8f0"/>
  <rect x="148" y="268" width="182" height="9" rx="4" fill="#94a3b8"/>
  <rect x="148" y="292" width="182" height="9" rx="4" fill="#94a3b8"/>
  <rect x="148" y="316" width="182" height="9" rx="4" fill="#94a3b8"/>
  <rect x="148" y="370" width="182" height="8" rx="4" fill="url(#creativeSkill)"/>
  <rect x="148" y="390" width="146" height="8" rx="4" fill="url(#creativeSkill)"/>
  <rect x="148" y="410" width="164" height="8" rx="4" fill="url(#creativeSkill)"/>
</svg>