<svg xmlns="http://www.w3.org/2000/svg" viewBox="0 0 960 720" role="img" aria-label="Tech Developer template preview">
  <rect width="960" height="720" fill="#eff6ff"/>
  <rect x="112" y="44" width="736" height="632" rx="8" fill="#ffffff" stroke="#bfdbfe"/>
  <rect x="144" y="86" width="500" height="22" rx="11" fill="#0f172a"/>
  <rect x="144" y="118" width="360" height="12" rx="6" fill="#0ea5e9"/>
  <rect x="760" y="76" width="58" height="58" rx="8" fill="#e0f2fe" stroke="#7dd3fc"/>
  <line x1="144" y1="162" x2="816" y2="162" stroke="#bae6fd" stroke-width="2"/>
  <rect x="144" y="186" width="120" height="20" rx="10" fill="#e0f2fe"/>
  <rect x="272" y="186" width="544" height="20" rx="10" fill="#f1f5f9" stroke="#e2e8f0"/>
  <rect x="144" y="216" width="120" height="20" rx="10" fill="#e0f2fe"/>
  <rect x="272" y="216" width="500" height="20" rx="10" fill="#f1f5f9" stroke="#e2e8f0"/>
  <line x1="144" y1="260" x2="816" y2="260" stroke="#dbeafe" stroke-width="2"/>
  <line x1="164" y1="286" x2="164" y2="362" stroke="#7dd3fc" stroke-width="4"/>
  <rect x="182" y="286" width="510" height="10" fill="#e2e8f0"/>
  <rect x="182" y="306" width="560" height="10" fill="#e2e8f0"/>
  <rect x="182" y="326" width="532" height="10" fill="#e2e8f0"/>
  <line x1="164" y1="388" x2="164" y2="464" stroke="#7dd3fc" stroke-width="4"/>
  <rect x="182" y="388" width="530" height="10" fill="#e2e8f0"/>
  <rect x="182" y="408" width="556" height="10" fill="#e2e8f0"/>
  <rect x="182" y="428" width="520" height="10" fill="#e2e8f0"/>
</svg>